<?xml version="1.0"?><svg width="640" height="480" xmlns="http://www.w3.org/2000/svg">
 <title>Gear</title>
 <g>
  <title>Layer 1</title>
  <path fill="#000000" fill-rule="evenodd" stroke="#000000" stroke-width="4.125" stroke-linecap="round" stroke-linejoin="round" stroke-miterlimit="4" id="path908" d="m315.520203,43.513077l-10.78125,83.874985c-8.382202,2.459869 -16.415405,5.726318 -23.9375,9.84375l-67.375015,-51.093735l-32.4375,32.437485l51.59375,66.8125c-4.142303,7.546814 -7.402771,15.61676 -9.875,24.03125l-83.749985,11.5l0,45.84375l83.687485,10.75c2.468094,8.451416 5.75444,16.546509 9.90625,24.125l-50.96875,67.21875l32.4375,32.4375l66.656265,-51.5c7.590118,4.16748 15.688782,7.491364 24.15625,9.96875l11.5,83.5625l45.875,0l10.71875,-83.59375c8.468292,-2.482422 16.566376,-5.795715 24.15625,-9.96875l67.1875,50.9375l32.4375,-32.4375l-51.5,-66.71875c4.136658,-7.567535 7.416016,-15.657532 9.875,-24.09375l83.6875,-11.5l0,-45.875l-83.75,-10.75c-2.47406,-8.397736 -5.799561,-16.43631 -9.9375,-23.96875l51.0625,-67.34375l-32.4375,-32.437485l-66.875,51.624985c-7.523071,-4.112305 -15.555328,-7.357574 -23.9375,-9.8125l-11.53125,-83.874985l-45.84375,0zm86.690887,199.906265c0,34.96759 -28.379517,63.347137 -63.347137,63.347137c-34.967651,0 -63.347168,-28.379547 -63.347168,-63.347137c0,-34.967651 28.379517,-63.347168 63.347168,-63.347168c34.967621,0 63.347137,28.379517 63.347137,63.347168z"/>
 </g>
</svg>