<?xml version="1.0" encoding="UTF-8" standalone="no"?>
<!-- Created with Inkscape (http://www.inkscape.org/) -->

<svg
   xmlns:dc="http://purl.org/dc/elements/1.1/"
   xmlns:cc="http://creativecommons.org/ns#"
   xmlns:rdf="http://www.w3.org/1999/02/22-rdf-syntax-ns#"
   xmlns:svg="http://www.w3.org/2000/svg"
   xmlns="http://www.w3.org/2000/svg"
   xmlns:sodipodi="http://sodipodi.sourceforge.net/DTD/sodipodi-0.dtd"
   xmlns:inkscape="http://www.inkscape.org/namespaces/inkscape"
   id="svg2"
   version="1.1"
   inkscape:version="0.48.5 r10040"
   width="522"
   height="533"
   sodipodi:docname="Indian Election Symbol Book.png">
  <metadata
     id="metadata8">
    <rdf:RDF>
      <cc:Work
         rdf:about="">
        <dc:format>image/svg+xml</dc:format>
        <dc:type
           rdf:resource="http://purl.org/dc/dcmitype/StillImage" />
        <dc:title></dc:title>
      </cc:Work>
    </rdf:RDF>
  </metadata>
  <defs
     id="defs6" />
  <sodipodi:namedview
     pagecolor="#ffffff"
     bordercolor="#666666"
     borderopacity="1"
     objecttolerance="10"
     gridtolerance="10"
     guidetolerance="10"
     inkscape:pageopacity="0"
     inkscape:pageshadow="2"
     inkscape:window-width="1280"
     inkscape:window-height="734"
     id="namedview4"
     showgrid="false"
     inkscape:zoom="0.88728307"
     inkscape:cx="455.64754"
     inkscape:cy="266.5"
     inkscape:window-x="0"
     inkscape:window-y="27"
     inkscape:window-maximized="1"
     inkscape:current-layer="svg2" />
  <path
     style="fill:#131313"
     d="m 140.95541,510.74064 c -8.20409,-2.05095 -10.60169,-3.1267 -14.73334,-6.61056 -4.98117,-4.20019 -14.21117,-14.96093 -19.23908,-22.42976 l -2.72892,-4.05375 0,-28.28157 c 0,-15.55487 0.88469,-48.38068 1.96597,-72.94625 1.08128,-24.56557 2.17421,-53.21468 2.42872,-63.66468 0.25451,-10.45 0.70134,-19.675 0.99296,-20.5 0.29161,-0.825 1.00133,-13.65 1.57714,-28.5 0.57582,-14.85 1.47547,-35.325 1.99923,-45.5 0.52377,-10.175 1.19312,-29.3 1.48745,-42.5 0.68176,-30.57487 1.50837,-46.88539 2.64699,-52.2303 0.49565,-2.32667 2.44754,-6.64764 4.33752,-9.60217 3.00688,-4.70051 4.03795,-5.5263 8.25018,-6.60767 2.64761,-0.6797 8.18884,-2.5844 12.31384,-4.23266 4.125,-1.64827 10.76505,-4.079042 14.75566,-5.401723 7.02805,-2.329434 15.27202,-5.610929 23.93948,-9.52906 2.30732,-1.043028 4.65409,-1.896415 5.21505,-1.896415 1.35828,0 9.60416,-2.810067 14.58981,-4.971982 8.17929,-3.546768 17.58481,-7.028018 18.98805,-7.028018 0.79665,0 6.75024,-2.093441 13.2302,-4.65209 6.47996,-2.55865 14.48175,-5.449621 17.78175,-6.424381 5.53021,-1.633524 13.15275,-4.308798 43,-15.091671 6.05,-2.185675 15.05,-5.243364 20,-6.794865 4.95,-1.551501 13.22374,-4.444529 18.38608,-6.428952 8.01598,-3.081371 10.576,-3.608041 17.53784,-3.608041 l 8.15176,0 7.96216,7.826934 c 11.70345,11.504687 15.2336,13.700431 29.38954,18.280237 10.05322,3.252474 14.96917,4.254915 24.53221,5.002512 17.89475,1.398935 16.54111,-0.906396 16.53693,28.16337 -0.002,14.355525 -2.04919,67.213585 -5.02416,129.726945 -2.76136,58.025 -5.45027,119.9 -5.97534,137.5 -1.05976,35.52258 -1.83943,40.27618 -8.01684,48.87807 -3.21986,4.48358 -6.70543,6.7776 -12.48018,8.21382 -1.65,0.41037 -7.725,2.74603 -13.5,5.19036 -5.775,2.44433 -12.525,5.0195 -15,5.7226 -2.475,0.70311 -8.775,3.06678 -14,5.25261 -5.225,2.18583 -12.59127,4.98918 -16.36948,6.22968 -3.77822,1.24049 -8.05322,2.87309 -9.5,3.62799 -1.44679,0.7549 -3.13022,1.37532 -3.74097,1.37871 -0.61075,0.003 -2.6999,1.08478 -4.64255,2.4031 -1.94265,1.31832 -4.97346,2.71352 -6.73512,3.10045 -1.76166,0.38693 -6.52186,2.21595 -10.57823,4.06449 -4.05636,1.84854 -11.10272,4.67664 -15.65858,6.28466 -4.55586,1.60802 -11.20651,4.29322 -14.77923,5.96711 -3.57271,1.67389 -9.2661,3.96615 -12.65197,5.0939 -3.38588,1.12776 -10.81088,4.02457 -16.5,6.43737 -5.68913,2.4128 -12.81887,5.19521 -15.84387,6.18312 -3.025,0.98792 -9.14941,3.47365 -13.6098,5.52384 -4.46039,2.05019 -9.55512,4.04507 -11.32161,4.43305 -4.76093,1.04568 -16.15878,6.41549 -19.39532,9.13762 -1.55469,1.3076 -3.31222,2.37745 -3.9056,2.37745 -0.59339,0 -2.59136,1.15362 -4.43994,2.5636 -9.92898,7.5732 -24.25006,9.26689 -41.62639,4.92297 z m 28.33826,-16.25086 c 2.45322,-1.03048 7.1604,-2.4427 10.4604,-3.13826 3.3,-0.69556 7.95306,-2.18682 10.34013,-3.31389 l 4.34013,-2.04923 -0.58201,-4.61717 c -1.22059,-9.68311 -1.72631,-46.09232 -0.78641,-56.61716 0.54028,-6.05 0.65458,-11.35156 0.254,-11.78125 -0.40058,-0.42968 -3.39177,-0.0747 -6.64709,0.78888 -3.25531,0.86356 -11.99375,1.82261 -19.41875,2.13123 -14.77825,0.61424 -16.12372,0.32284 -34.85361,-7.54847 -7.92197,-3.32924 -10.96896,-3.8116 -11.62548,-1.84039 -0.22898,0.6875 -1.08979,16.06194 -1.91292,34.16543 -1.25652,27.63537 -1.28127,33.43075 -0.15432,36.12792 0.73824,1.76687 1.83818,3.51899 2.4443,3.89359 0.60611,0.3746 1.10203,1.50217 1.10203,2.50571 0,2.26118 7.35559,9.05735 9.80288,9.05735 0.98842,0 2.22462,0.41199 2.74712,0.91554 4.41015,4.25017 25.5847,5.06068 34.4896,1.32017 z m 50.4604,-21.23571 c 5.16891,-2.2 9.91546,-4 10.54788,-4 0.63243,0 2.56787,-0.64069 4.30099,-1.42376 8.80679,-3.97914 17.81573,-7.62964 23.65113,-9.58366 3.575,-1.19711 8.3,-2.98855 10.5,-3.98099 8.36696,-3.77438 16.48314,-7.01159 17.57915,-7.01159 0.62668,0 5.91101,-2.0777 11.74295,-4.6171 5.83195,-2.53941 12.82841,-5.27782 15.54769,-6.08536 2.71929,-0.80754 7.23602,-2.50908 10.03718,-3.7812 9.75029,-4.428 17.54201,-7.51634 18.96333,-7.51634 0.78681,0 5.40754,-1.82868 10.26829,-4.06373 4.86076,-2.23505 11.74718,-5.00367 15.30318,-6.15249 3.55599,-1.14883 10.62838,-4.02092 15.71642,-6.38244 5.08803,-2.36152 10.73391,-4.579 12.54639,-4.92774 5.25037,-1.01022 11.10295,-4.79196 11.87321,-7.67208 0.78998,-2.95383 2.67752,-30.07281 3.4315,-49.30152 2.63808,-67.27899 2.35726,-61.55993 10.0169,-204 1.3605,-25.3 2.47367,-49.539982 2.47372,-53.866629 8e-5,-7.01469 -0.18943,-7.812816 -1.74991,-7.36971 -0.9625,0.273307 -5.35,1.510958 -9.75,2.750335 -4.4,1.239377 -14.525,4.398891 -22.5,7.021142 -7.975,2.622251 -15.85,5.049807 -17.5,5.394568 -2.94572,0.615498 -15.15868,4.415984 -53.02206,16.499624 -10.46214,3.33887 -19.63112,6.07067 -20.37552,6.07067 -0.7444,0 -8.72516,2.475 -17.73504,5.5 -9.00987,3.025 -17.02,5.5 -17.80029,5.5 -0.78029,0 -8.81081,2.475 -17.84561,5.5 -9.03479,3.025 -17.30717,5.5 -18.38306,5.5 -4.81344,0 -5.14972,1.25324 -6.3057,23.5 -0.60015,11.55 -2.18508,36.75 -3.52206,56 -1.33697,19.25 -2.93687,53 -3.55532,75 -0.69316,24.6579 -2.818,65.06758 -5.5399,105.35632 -4.53752,67.16326 -4.89358,74.3322 -3.74877,75.47701 1.46863,1.46864 5.88038,0.47724 14.83333,-3.33333 z m -43.071,-74.97512 c 1.68905,-0.53632 5.64684,-1.24224 8.79508,-1.56872 10.68662,-1.10822 9.63352,3.30331 13.37944,-56.04791 1.80188,-28.54954 3.59257,-58.76018 3.97931,-67.13476 0.80031,-17.33018 0.74428,-17.45533 -6.85581,-15.31431 -12.55277,3.53625 -17.11513,4.24239 -28.22702,4.36885 -15.48893,0.17627 -23.46037,-1.78478 -32.69762,-8.04391 -9.09116,-6.16015 -9.79491,-5.73535 -9.83139,5.9345 -0.016,5.10476 -0.88627,34.48138 -1.93403,65.28138 -1.90403,55.97136 -1.90398,56.00216 0.10251,60.21753 2.16174,4.54156 8.96964,10.25424 12.30753,10.32757 1.12915,0.0248 3.403,0.66326 5.053,1.41879 3.59836,1.64766 31.1518,2.07788 35.929,0.56099 z m -0.429,-150.79529 c 2.475,-0.5296 8.61638,-2.37292 13.6475,-4.09625 5.03113,-1.72334 9.81353,-3.13334 10.62756,-3.13334 0.81403,0 1.98926,-0.61356 2.61163,-1.36347 1.48076,-1.7842 7.36921,-92.7708 6.08725,-94.05848 -0.55978,-0.56229 -2.97688,-0.27212 -6.19589,0.74381 -9.45514,2.98407 -26.43633,4.95398 -36.17644,4.19665 -8.04543,-0.62555 -9.86668,-1.18226 -19,-5.8078 -5.55588,-2.81376 -11.1748,-5.92475 -12.48647,-6.91332 -2.61222,-1.96874 -5.65616,-2.34906 -6.59843,-0.82442 -0.99412,1.60851 -2.39264,94.38318 -1.44939,96.14938 0.47653,0.8923 3.5858,3.9782 6.90949,6.85756 6.10878,5.29212 9.25951,6.62203 18.73876,7.90951 2.86857,0.38962 5.56466,1.05747 5.99131,1.48413 0.90296,0.90296 10.781,0.24952 17.29312,-1.14396 z m 2.65678,-112.34398 c 3.76377,-1.71292 9.99322,-4.1413 13.84322,-5.39641 3.85,-1.25511 10.825,-3.94382 15.5,-5.97491 4.675,-2.03109 10.525,-4.2794 13,-4.99624 4.61343,-1.33619 9.24608,-3.1587 16.78455,-6.60312 2.35651,-1.07671 7.53151,-3.03282 11.5,-4.3469 6.98086,-2.31156 10.78618,-3.80721 19.21545,-7.55246 2.2,-0.977495 5.125,-2.099558 6.5,-2.493474 2.67765,-0.767105 28.6256,-10.741454 41,-15.760329 4.125,-1.67304 12.675,-4.945016 19,-7.271058 6.325,-2.326042 14.425,-5.449517 18,-6.941055 3.575,-1.491538 9.2,-3.619344 12.5,-4.728458 3.3,-1.109114 6.51604,-2.439156 7.14677,-2.95565 1.4772,-1.209675 0.66477,-4.273632 -1.70087,-6.4145 -2.10166,-1.901984 -2.13899,-1.892505 -15.9459,4.049403 -4.675,2.011922 -10.975,4.52998 -14,5.595685 -5.86611,2.066626 -26.61719,10.116851 -39,15.129761 -4.125,1.669915 -12.675,4.949629 -19,7.288252 -10.50428,3.883882 -13.38966,5.034629 -22.5,8.973462 -1.65,0.713374 -5.025,1.946556 -7.5,2.740407 -2.475,0.79385 -9.9,3.601904 -16.5,6.240114 -6.6,2.63822 -17.4,6.95204 -24,9.58628 -6.6,2.63424 -13.125,5.08542 -14.5,5.44707 -1.375,0.36165 -3.85,1.2583 -5.5,1.99255 -7.65484,3.40642 -20.54049,8.41714 -25.78176,10.02551 -6.88326,2.11223 -7.79431,3.19069 -4.76657,5.64241 3.33753,2.70257 8.89537,2.27792 16.70511,-1.27634 z m 51.84322,-4.27276 c 3.3,-0.93614 9.28634,-3.25699 13.30297,-5.15746 4.01664,-1.90046 8.12746,-3.45539 9.13517,-3.45539 2.82477,0 33.56039,-9.78218 38.34736,-12.20476 0.98202,-0.49698 4.80702,-1.72308 8.5,-2.72466 3.69297,-1.00158 9.8645,-3.04809 13.7145,-4.5478 3.85,-1.49971 10.825,-3.798 15.5,-5.10731 7.5184,-2.105651 10.68004,-3.215339 18.5,-6.493237 3.60487,-1.511054 17.5159,-5.922231 18.67627,-5.922231 0.62379,0 7.25182,-2.220804 14.72895,-4.93512 7.47713,-2.714316 15.16978,-5.330421 17.09478,-5.813567 2.49261,-0.625608 3.5,-1.435805 3.5,-2.814881 0,-1.58411 -1.00069,-2.081153 -5.5,-2.731848 -14.67719,-2.122631 -15.19039,-2.086585 -24.36525,1.711358 -4.76199,1.971232 -9.17943,3.584058 -9.81652,3.584058 -0.63709,0 -7.26932,2.441378 -14.73829,5.425286 -7.46897,2.983907 -14.92994,5.758495 -16.57994,6.165752 -1.65,0.407257 -6.15,2.06261 -10,3.678562 -3.85,1.615952 -11.37325,4.449919 -16.71833,6.297705 -5.34508,1.847785 -13.47328,4.913973 -18.06266,6.813753 -4.58939,1.89978 -10.84985,4.18252 -13.91213,5.07275 -3.06229,0.89023 -10.00909,3.45355 -15.43734,5.69625 -5.42825,2.24271 -11.89454,4.64786 -14.36954,5.34478 -2.475,0.69692 -10.125,3.50631 -17,6.24309 -6.875,2.73677 -13.2875,5.25121 -14.25,5.58763 -0.9625,0.33642 -1.75,1.11006 -1.75,1.7192 0,1.60203 14.12003,0.66163 21.5,-1.43191 z m -76.49161,-6.83959 c 5.77961,-2.43934 11.82003,-4.76436 13.42315,-5.16672 1.60312,-0.40236 9.13038,-3.17843 16.72725,-6.16905 7.59687,-2.99062 14.50006,-5.43749 15.34042,-5.43749 0.84036,0 2.30932,-0.44342 3.26436,-0.98538 3.09407,-1.7558 24.42853,-10.014618 25.87011,-10.014618 0.76941,0 6.78426,-2.25 13.36632,-5 6.58206,-2.75 12.49147,-5 13.13202,-5 0.64055,0 7.28538,-2.439069 14.76631,-5.420153 7.48092,-2.981084 15.17667,-5.854174 17.10167,-6.384644 1.925,-0.530471 9.21793,-3.266402 16.20652,-6.079847 6.98858,-2.813446 13.35396,-5.115356 14.14529,-5.115356 1.2492,0 9.18236,-3.086667 19.14819,-7.450258 1.65,-0.722462 4.8,-1.850383 7,-2.506491 8.77348,-2.616524 14.45055,-5.312076 15.02951,-7.136225 0.73461,-2.314548 -0.14399,-3.907026 -2.15557,-3.907026 -1.34516,0 -17.7141,5.266386 -43.87394,14.115586 -4.95,1.674457 -12.825,4.185639 -17.5,5.580405 -4.675,1.394766 -13.45,4.257908 -19.5,6.362539 -6.05,2.10463 -13.7,4.586552 -17,5.51538 -3.3,0.928829 -12.075,3.826154 -19.5,6.438501 -7.425,2.612347 -15.075,5.067138 -17,5.455093 -1.925,0.387955 -9.575,2.887351 -17,5.554214 -7.425,2.666863 -15.3,5.163108 -17.5,5.54721 -2.2,0.384103 -5.27907,1.346281 -6.84238,2.138174 -1.56331,0.791893 -6.06331,2.484146 -10,3.760566 -3.93669,1.27642 -8.83067,3.04337 -10.8755,3.92655 -2.04484,0.88318 -4.87968,1.60578 -6.29966,1.60578 -1.41998,0 -4.02193,0.75569 -5.78212,1.67931 -1.76019,0.92362 -5.42249,2.18887 -8.13845,2.81166 -9.33446,2.14046 -11.42336,10.17737 -3.74652,14.41447 4.51356,2.49118 5.11448,2.38773 18.19302,-3.13218 z"
     id="path2993"
     inkscape:connector-curvature="0" />
</svg>
